<svg xmlns="http://www.w3.org/2000/svg" viewBox="0 0 128 128" fill="none">
  <defs>
    <linearGradient id="g" x1="18" y1="16" x2="110" y2="112" gradientUnits="userSpaceOnUse">
      <stop stop-color="#FFE6B8"/>
      <stop offset="0.44" stop-color="#E7A56D"/>
      <stop offset="1" stop-color="#B95D7B"/>
    </linearGradient>
    <linearGradient id="s" x1="22" y1="20" x2="106" y2="108" gradientUnits="userSpaceOnUse">
      <stop stop-color="#D84B74"/>
      <stop offset="1" stop-color="#8C5CFF"/>
    </linearGradient>
    <filter id="glow" x="-30%" y="-30%" width="160%" height="160%">
      <feGaussianBlur stdDeviation="2.4" result="blur"/>
      <feColorMatrix in="blur" type="matrix" values="1 0 0 0 0.95  0 1 0 0 0.52  0 0 1 0 0.38  0 0 0 0.55 0"/>
      <feBlend in="SourceGraphic"/>
    </filter>
  </defs>
  
  <path d="M24 24h26v26H24V24Zm54 0h26v26H78V24ZM24 78h26v26H24V78Z" stroke="url(#g)" stroke-width="7" stroke-linejoin="round"/>
  <path d="M76 76h10v10H76V76Zm20 0h8v8h-8v-8ZM66 94h14v10H66V94Zm28-2h10v12H94V92Zm-12-12h8v8h-8v-8Zm-18-16h12v12H64V64Zm34-2h8v8h-8v-8Z" fill="url(#s)"/>
  <path d="M15 39V16h23M90 16h23v23M15 90v23h23M90 113h23V90" stroke="url(#g)" stroke-width="6" stroke-linecap="round"/>

</svg>
