<svg xmlns="http://www.w3.org/2000/svg" viewBox="0 0 128 128" fill="none">
  <defs>
    <linearGradient id="g" x1="18" y1="16" x2="110" y2="112" gradientUnits="userSpaceOnUse">
      <stop stop-color="#E7D1B2"/>
      <stop offset="0.44" stop-color="#C89C6F"/>
      <stop offset="1" stop-color="#9A6E58"/>
    </linearGradient>
    <linearGradient id="s" x1="22" y1="20" x2="106" y2="108" gradientUnits="userSpaceOnUse">
      <stop stop-color="#D2AC7A"/>
      <stop offset="1" stop-color="#24324B"/>
    </linearGradient>
    <filter id="glow" x="-30%" y="-30%" width="160%" height="160%">
      <feGaussianBlur stdDeviation="2.4" result="blur"/>
      <feColorMatrix in="blur" type="matrix" values="1 0 0 0 0.95  0 1 0 0 0.52  0 0 1 0 0.38  0 0 0 0.55 0"/>
      <feBlend in="SourceGraphic"/>
    </filter>
  </defs>
  
  <rect x="31" y="24" width="66" height="82" rx="10" stroke="url(#g)" stroke-width="7"/>
  <path d="M51 24c0-7 5.5-12 13-12s13 5 13 12" stroke="url(#g)" stroke-width="7" stroke-linecap="round"/>
  <circle cx="64" cy="56" r="13" stroke="url(#g)" stroke-width="6"/>
  <path d="M42 91c4-15 15-22 22-22s18 7 22 22" stroke="url(#g)" stroke-width="6" stroke-linecap="round"/>
  <path d="m93 94 5 10 11 1-8 7 2 11-10-6-10 6 2-11-8-7 11-1 5-10Z" fill="url(#s)"/>

</svg>
