<svg xmlns="http://www.w3.org/2000/svg" viewBox="0 0 128 128" fill="none">
  <defs>
    <linearGradient id="g" x1="18" y1="16" x2="110" y2="112" gradientUnits="userSpaceOnUse">
      <stop stop-color="#E7D1B2"/>
      <stop offset="0.44" stop-color="#C89C6F"/>
      <stop offset="1" stop-color="#9A6E58"/>
    </linearGradient>
    <linearGradient id="s" x1="22" y1="20" x2="106" y2="108" gradientUnits="userSpaceOnUse">
      <stop stop-color="#D2AC7A"/>
      <stop offset="1" stop-color="#24324B"/>
    </linearGradient>
    <filter id="glow" x="-30%" y="-30%" width="160%" height="160%">
      <feGaussianBlur stdDeviation="2.4" result="blur"/>
      <feColorMatrix in="blur" type="matrix" values="1 0 0 0 0.95  0 1 0 0 0.52  0 0 1 0 0.38  0 0 0 0.55 0"/>
      <feBlend in="SourceGraphic"/>
    </filter>
  </defs>
  
  <path d="M64 102S24 77.4 24 48c0-13.2 10.3-23 22.6-23 7.8 0 14.3 4 17.4 9.8C67.1 29 73.6 25 81.4 25 93.7 25 104 34.8 104 48c0 29.4-40 54-40 54Z" stroke="url(#g)" stroke-width="7" stroke-linejoin="round"/>
  <path d="M36 64c13-20 43-20 56 0M36 64c13 20 43 20 56 0" stroke="url(#s)" stroke-width="5" stroke-linecap="round"/>

</svg>
