<svg xmlns="http://www.w3.org/2000/svg" viewBox="0 0 256 256" fill="none">
  <defs>
    <linearGradient id="bg" x1="38" y1="24" x2="218" y2="236" gradientUnits="userSpaceOnUse">
      <stop stop-color="#26334a"/>
      <stop offset="1" stop-color="#0b1322"/>
    </linearGradient>
    <linearGradient id="gold" x1="62" y1="54" x2="197" y2="190" gradientUnits="userSpaceOnUse">
      <stop stop-color="#F1D9B7"/>
      <stop offset="0.48" stop-color="#D5A66F"/>
      <stop offset="1" stop-color="#B88450"/>
    </linearGradient>
    <filter id="shadow" x="-20" y="-20" width="296" height="296" filterUnits="userSpaceOnUse">
      <feDropShadow dx="0" dy="14" stdDeviation="15" flood-color="#7c623e" flood-opacity=".28"/>
    </filter>
  </defs>
  <rect x="20" y="20" width="216" height="216" rx="48" fill="url(#bg)" filter="url(#shadow)"/>
  <path d="M92 71c-21 14-35 36-35 62 0 32 23 55 55 55 15 0 29-5 40-16" stroke="url(#gold)" stroke-width="15" stroke-linecap="round" stroke-linejoin="round"/>
  <path d="M105 128c13-15 34-22 54-17 15 3 28 12 40 25" stroke="url(#gold)" stroke-width="13" stroke-linecap="round" stroke-linejoin="round"/>
  <path d="M143 134h62l-43 43" stroke="url(#gold)" stroke-width="15" stroke-linecap="round" stroke-linejoin="round"/>
  <path d="M140 134c20 2 35 22 48 43" stroke="url(#gold)" stroke-width="13" stroke-linecap="round" stroke-linejoin="round"/>
</svg>