<svg xmlns="http://www.w3.org/2000/svg" viewBox="0 0 128 128" fill="none">
  <defs>
    <linearGradient id="gold" x1="20" y1="18" x2="108" y2="108" gradientUnits="userSpaceOnUse">
      <stop offset="0" stop-color="#E8D0AE"/>
      <stop offset="0.5" stop-color="#D3A26E"/>
      <stop offset="1" stop-color="#B88755"/>
    </linearGradient>
    <linearGradient id="navy" x1="14" y1="14" x2="114" y2="114" gradientUnits="userSpaceOnUse">
      <stop offset="0" stop-color="#22324A"/>
      <stop offset="1" stop-color="#0C1424"/>
    </linearGradient>
    <filter id="shadow" x="0" y="0" width="128" height="128" filterUnits="userSpaceOnUse" color-interpolation-filters="sRGB">
      <feDropShadow dx="0" dy="8" stdDeviation="8" flood-color="#9A7A51" flood-opacity="0.24"/>
    </filter>
  </defs>
  <g filter="url(#shadow)">
    <rect x="12" y="12" width="104" height="104" rx="22" fill="url(#navy)" stroke="#D8B485" stroke-width="2.2"/>
  </g>
  <path d="M34 34h20v20H34zM74 34h20v20H74zM34 74h20v20H34z" stroke="url(#gold)" stroke-width="4"/>
<path d="M79 74h5v5h-5zM89 74h5v5h-5zM79 84h5v5h-5zM89 89h5v5h-10" stroke="url(#gold)" stroke-width="4"/>
<path d="M44 44h0M84 44h0M44 84h0" stroke="url(#gold)" stroke-width="8" stroke-linecap="round"/>
</svg>
