<svg xmlns="http://www.w3.org/2000/svg" viewBox="0 0 128 128" fill="none">
  <defs>
    <linearGradient id="g" x1="18" y1="16" x2="110" y2="112" gradientUnits="userSpaceOnUse">
      <stop stop-color="#FFE6B8"/>
      <stop offset="0.44" stop-color="#E7A56D"/>
      <stop offset="1" stop-color="#B95D7B"/>
    </linearGradient>
    <linearGradient id="s" x1="22" y1="20" x2="106" y2="108" gradientUnits="userSpaceOnUse">
      <stop stop-color="#D84B74"/>
      <stop offset="1" stop-color="#8C5CFF"/>
    </linearGradient>
    <filter id="glow" x="-30%" y="-30%" width="160%" height="160%">
      <feGaussianBlur stdDeviation="2.4" result="blur"/>
      <feColorMatrix in="blur" type="matrix" values="1 0 0 0 0.95  0 1 0 0 0.52  0 0 1 0 0.38  0 0 0 0.55 0"/>
      <feBlend in="SourceGraphic"/>
    </filter>
  </defs>
  
  <path d="M83.7 17.5C62.1 22.7 41.4 45.9 42.4 72.7c.7 18.6 14.4 33.8 33.4 33.8 17.7 0 31.7-12.2 31.7-29.4 0-16.1-12.7-27.8-29.2-27.8-7.6 0-14.4 2.5-19.7 6.8 5.3-13.4 16-24.8 30.7-32.2L83.7 17.5Z" stroke="url(#g)" stroke-width="8" stroke-linejoin="round" filter="url(#glow)"/>
  <path d="M70.8 61.6h36.5L80.4 106" stroke="url(#g)" stroke-width="8" stroke-linecap="round" stroke-linejoin="round" filter="url(#glow)"/>
  <circle cx="74.8" cy="77.2" r="13.6" stroke="url(#g)" stroke-width="7"/>
  <path d="M66.5 66.5l17 21M84 66.5l-17 21" stroke="url(#s)" stroke-width="4.5" stroke-linecap="round"/>

</svg>
