<svg xmlns="http://www.w3.org/2000/svg" width="780" height="220" viewBox="0 0 780 220" fill="none">
  <defs>
    <linearGradient id="navyWordDark" x1="36" y1="12" x2="102" y2="138" gradientUnits="userSpaceOnUse">
      <stop offset="0" stop-color="#C8D1E8"/>
      <stop offset="1" stop-color="#F0F4FF"/>
    </linearGradient>
    <linearGradient id="goldWordDark" x1="88" y1="54" x2="182" y2="152" gradientUnits="userSpaceOnUse">
      <stop offset="0" stop-color="#F5DEC2"/>
      <stop offset="0.52" stop-color="#DDB583"/>
      <stop offset="1" stop-color="#C69361"/>
    </linearGradient>
  </defs>
  <g transform="translate(18,20)">
    <path d="M80 8C57 13 32 38 32 71c0 22 14 39 34 39 17 0 31-12 31-29 0-15-12-26-27-26-10 0-19 5-25 11 6-18 20-35 40-46l-2-12Z" stroke="url(#navyWordDark)" stroke-width="12" stroke-linecap="round" stroke-linejoin="round"/>
    <path d="M74 59c8-10 19-16 34-16h53l-64 77" stroke="url(#goldWordDark)" stroke-width="12" stroke-linecap="round" stroke-linejoin="round"/>
    <path d="M65 66c12-20 42-25 62-9" stroke="url(#goldWordDark)" stroke-width="9" stroke-linecap="round" opacity=".62"/>
  </g>
  <circle cx="205" cy="110" r="4.6" fill="#DDB583"/>
  <text x="228" y="126" fill="#F4F7FC" font-family="Satoshi, Avenir, Helvetica, Arial, sans-serif" font-size="92" font-weight="300" letter-spacing="16">sixseven</text>
  <text x="196" y="171" fill="#DDB583" font-family="Satoshi, Avenir, Helvetica, Arial, sans-serif" font-size="24" font-weight="500" letter-spacing="8">PRIVATE EVENTS. REAL CONNECTIONS.</text>
</svg>
