<svg xmlns="http://www.w3.org/2000/svg" viewBox="0 0 220 220" fill="none">
  <defs>
    <linearGradient id="navyMark" x1="44" y1="20" x2="112" y2="148" gradientUnits="userSpaceOnUse">
      <stop offset="0" stop-color="#24324B"/>
      <stop offset="1" stop-color="#0F1726"/>
    </linearGradient>
    <linearGradient id="goldMark" x1="94" y1="62" x2="182" y2="158" gradientUnits="userSpaceOnUse">
      <stop offset="0" stop-color="#E6CCAA"/>
      <stop offset="0.52" stop-color="#D7B07E"/>
      <stop offset="1" stop-color="#B98959"/>
    </linearGradient>
  </defs>
  <path d="M104 28C79 33 52 60 52 96c0 24 15 43 36 43 18 0 33-13 33-31 0-16-13-28-29-28-11 0-20 5-27 12 6-19 21-37 41-49l-2-15Z" stroke="url(#navyMark)" stroke-width="14" stroke-linecap="round" stroke-linejoin="round"/>
  <path d="M98 83c8-11 20-18 36-18h56l-69 83" stroke="url(#goldMark)" stroke-width="14" stroke-linecap="round" stroke-linejoin="round"/>
  <path d="M87 90c13-22 45-28 66-9" stroke="url(#goldMark)" stroke-width="11" stroke-linecap="round" opacity=".62"/>
</svg>
